<svg xmlns="http://www.w3.org/2000/svg" width="512" height="32" viewBox="0 0 512 32">
  <path d="M9.09,0.5H502.68A8.5,8.5 0 0 1 511.19,9V9A8.5,8.5 0 0 1 502.68,17.5H9.09A8.5,8.5 0 0 1 0.59,9V9A8.5,8.5 0 0 1 9.09,0.5ZM9.09,2.01H502.68A6.99,6.99 0 0 1 509.67,9V9A6.99,6.99 0 0 1 502.68,15.98H9.09A6.99,6.99 0 0 1 2.11,9V9A6.99,6.99 0 0 1 9.09,2.01Z" fill="#ffff00" fill-opacity="0.8" fill-rule="evenodd"/>
  <path d="M9.09,2.01H502.68A6.99,6.99 0 0 1 509.67,9V9A6.99,6.99 0 0 1 502.68,15.98H9.09A6.99,6.99 0 0 1 2.11,9V9A6.99,6.99 0 0 1 9.09,2.01ZM9.09,3.05H502.68A5.94,5.94 0 0 1 508.63,9V9A5.94,5.94 0 0 1 502.68,14.94H9.09A5.94,5.94 0 0 1 3.15,9V9A5.94,5.94 0 0 1 9.09,3.05Z" fill="#005544" fill-opacity="0.8" fill-rule="evenodd"/>
  <path d="M9.09,3.05H502.68A5.94,5.94 0 0 1 508.63,9V9A5.94,5.94 0 0 1 502.68,14.94H9.09A5.94,5.94 0 0 1 3.15,9V9A5.94,5.94 0 0 1 9.09,3.05Z" fill="#007733" fill-opacity="0.533"/>
</svg>
