<?xml version='1.0' encoding='UTF-8'?>
<!-- Created with Inkscape (http://www.inkscape.org/) --><svg xmlns:xlink="http://www.w3.org/1999/xlink" xmlns="http://www.w3.org/2000/svg" xmlns:svg="http://www.w3.org/2000/svg" version="1.1" id="svg1" width="76.5678" height="76.5678" viewBox="171.6560 1155.4900 76.5678 76.5678">
  <defs id="defs1">
    <clipPath id="clipLeftOfCut" clipPathUnits="userSpaceOnUse"><rect id="rectLeftOfCut" x="0" y="0" width="525.1332" height="1540.3972"/></clipPath></defs>
  <g id="leftOfCut" clip-path="url(#clipLeftOfCut)"><g id="g1" transform="translate(866.3776,223.15626)">
    <g id="group-MC1">
      <path id="path338" d="m 157.54199,-287.18066 c 0,0 0,5.92968 0,5.92968" style="fill:none;stroke:#2896ff;stroke-width:1.0211;stroke-linecap:butt;stroke-linejoin:miter;stroke-miterlimit:4;stroke-dasharray:none;stroke-opacity:1" transform="matrix(1.3333333,0,0,1.3333333,-866.3776,1317.2409)"/>
      <path id="path339" d="m 138.27441,-279.27246 c 0,0 4.19434,4.19336 4.19434,4.19336" style="fill:none;stroke:#2896ff;stroke-width:1.0211;stroke-linecap:butt;stroke-linejoin:miter;stroke-miterlimit:4;stroke-dasharray:none;stroke-opacity:1" transform="matrix(1.3333333,0,0,1.3333333,-866.3776,1317.2409)"/>
      <path id="path340" d="m 130.24219,-260.05566 c 0,0 5.93066,-9.8e-4 5.93066,-9.8e-4" style="fill:none;stroke:#2896ff;stroke-width:1.0211;stroke-linecap:butt;stroke-linejoin:miter;stroke-miterlimit:4;stroke-dasharray:none;stroke-opacity:1" transform="matrix(1.3333333,0,0,1.3333333,-866.3776,1317.2409)"/>
      <path id="path341" d="m 138.15234,-240.78809 c 0,0 4.19336,-4.19531 4.19336,-4.19531" style="fill:none;stroke:#2896ff;stroke-width:1.0211;stroke-linecap:butt;stroke-linejoin:miter;stroke-miterlimit:4;stroke-dasharray:none;stroke-opacity:1" transform="matrix(1.3333333,0,0,1.3333333,-866.3776,1317.2409)"/>
      <path id="path342" d="m 157.36914,-232.75684 c 0,0 -9.8e-4,-5.93066 -9.8e-4,-5.93066" style="fill:none;stroke:#2896ff;stroke-width:1.0211;stroke-linecap:butt;stroke-linejoin:miter;stroke-miterlimit:4;stroke-dasharray:none;stroke-opacity:1" transform="matrix(1.3333333,0,0,1.3333333,-866.3776,1317.2409)"/>
      <path id="path343" d="m 176.63672,-240.66602 c 0,0 -4.19434,-4.19238 -4.19434,-4.19238" style="fill:none;stroke:#2896ff;stroke-width:1.0211;stroke-linecap:butt;stroke-linejoin:miter;stroke-miterlimit:4;stroke-dasharray:none;stroke-opacity:1" transform="matrix(1.3333333,0,0,1.3333333,-866.3776,1317.2409)"/>
      <path id="path344" d="m 184.66797,-259.88184 c 0,0 -5.93164,0 -5.93164,0" style="fill:none;stroke:#2896ff;stroke-width:1.0211;stroke-linecap:butt;stroke-linejoin:miter;stroke-miterlimit:4;stroke-dasharray:none;stroke-opacity:1" transform="matrix(1.3333333,0,0,1.3333333,-866.3776,1317.2409)"/>
      <path id="path345" d="m 176.75879,-279.14941 c 0,0 -4.19336,4.19336 -4.19336,4.19336" style="fill:none;stroke:#2896ff;stroke-width:1.0211;stroke-linecap:butt;stroke-linejoin:miter;stroke-miterlimit:4;stroke-dasharray:none;stroke-opacity:1" transform="matrix(1.3333333,0,0,1.3333333,-866.3776,1317.2409)"/>
      <path id="path346" d="m 164.34863,-286.29395 c 0,0 -1.48437,5.74219 -1.48437,5.74219" style="fill:none;stroke:#2896ff;stroke-width:1.0211;stroke-linecap:butt;stroke-linejoin:miter;stroke-miterlimit:4;stroke-dasharray:none;stroke-opacity:1" transform="matrix(1.3333333,0,0,1.3333333,-866.3776,1317.2409)"/>
      <path id="path347" d="m 143.71484,-283.45801 c 0,0 3.00977,5.10938 3.00977,5.10938" style="fill:none;stroke:#2896ff;stroke-width:1.0211;stroke-linecap:butt;stroke-linejoin:miter;stroke-miterlimit:4;stroke-dasharray:none;stroke-opacity:1" transform="matrix(1.3333333,0,0,1.3333333,-866.3776,1317.2409)"/>
      <path id="path348" d="m 131.12988,-266.8623 c 0,0 5.74219,1.48437 5.74219,1.48437" style="fill:none;stroke:#2896ff;stroke-width:1.0211;stroke-linecap:butt;stroke-linejoin:miter;stroke-miterlimit:4;stroke-dasharray:none;stroke-opacity:1" transform="matrix(1.3333333,0,0,1.3333333,-866.3776,1317.2409)"/>
      <path id="path349" d="m 133.96777,-246.22754 c 0,0 5.10938,-3.01172 5.10938,-3.01172" style="fill:none;stroke:#2896ff;stroke-width:1.0211;stroke-linecap:butt;stroke-linejoin:miter;stroke-miterlimit:4;stroke-dasharray:none;stroke-opacity:1" transform="matrix(1.3333333,0,0,1.3333333,-866.3776,1317.2409)"/>
      <path id="path350" d="m 150.56445,-233.64355 c 0,0 1.48243,-5.74317 1.48243,-5.74317" style="fill:none;stroke:#2896ff;stroke-width:1.0211;stroke-linecap:butt;stroke-linejoin:miter;stroke-miterlimit:4;stroke-dasharray:none;stroke-opacity:1" transform="matrix(1.3333333,0,0,1.3333333,-866.3776,1317.2409)"/>
      <path id="path351" d="m 171.19629,-236.48145 c 0,0 -3.00977,-5.10839 -3.00977,-5.10839" style="fill:none;stroke:#2896ff;stroke-width:1.0211;stroke-linecap:butt;stroke-linejoin:miter;stroke-miterlimit:4;stroke-dasharray:none;stroke-opacity:1" transform="matrix(1.3333333,0,0,1.3333333,-866.3776,1317.2409)"/>
      <path id="path352" d="m 183.78125,-253.07813 c 0,0 -5.74219,-1.48242 -5.74219,-1.48242" style="fill:none;stroke:#2896ff;stroke-width:1.0211;stroke-linecap:butt;stroke-linejoin:miter;stroke-miterlimit:4;stroke-dasharray:none;stroke-opacity:1" transform="matrix(1.3333333,0,0,1.3333333,-866.3776,1317.2409)"/>
      <path id="path353" d="m 180.94336,-273.71191 c 0,0 -5.10742,3.01269 -5.10742,3.01269" style="fill:none;stroke:#2896ff;stroke-width:1.0211;stroke-linecap:butt;stroke-linejoin:miter;stroke-miterlimit:4;stroke-dasharray:none;stroke-opacity:1" transform="matrix(1.3333333,0,0,1.3333333,-866.3776,1317.2409)"/>
      <path id="path354" d="m 170.71387,-283.7334 c 0,0 -2.87305,5.18848 -2.87305,5.18848" style="fill:none;stroke:#2896ff;stroke-width:1.0211;stroke-linecap:butt;stroke-linejoin:miter;stroke-miterlimit:4;stroke-dasharray:none;stroke-opacity:1" transform="matrix(1.3333333,0,0,1.3333333,-866.3776,1317.2409)"/>
      <path id="path355" d="m 150.02734,-286.14746 c 0,0 1.63868,5.69922 1.63868,5.69922" style="fill:none;stroke:#2896ff;stroke-width:1.0211;stroke-linecap:butt;stroke-linejoin:miter;stroke-miterlimit:4;stroke-dasharray:none;stroke-opacity:1" transform="matrix(1.3333333,0,0,1.3333333,-866.3776,1317.2409)"/>
      <path id="path356" d="m 133.69043,-273.22754 c 0,0 5.19043,2.87305 5.19043,2.87305" style="fill:none;stroke:#2896ff;stroke-width:1.0211;stroke-linecap:butt;stroke-linejoin:miter;stroke-miterlimit:4;stroke-dasharray:none;stroke-opacity:1" transform="matrix(1.3333333,0,0,1.3333333,-866.3776,1317.2409)"/>
      <path id="path357" d="m 131.27734,-252.54004 c 0,0 5.7002,-1.63769 5.7002,-1.63769" style="fill:none;stroke:#2896ff;stroke-width:1.0211;stroke-linecap:butt;stroke-linejoin:miter;stroke-miterlimit:4;stroke-dasharray:none;stroke-opacity:1" transform="matrix(1.3333333,0,0,1.3333333,-866.3776,1317.2409)"/>
      <path id="path358" d="m 144.19824,-236.2041 c 0,0 2.87207,-5.18945 2.87207,-5.18945" style="fill:none;stroke:#2896ff;stroke-width:1.0211;stroke-linecap:butt;stroke-linejoin:miter;stroke-miterlimit:4;stroke-dasharray:none;stroke-opacity:1" transform="matrix(1.3333333,0,0,1.3333333,-866.3776,1317.2409)"/>
      <path id="path359" d="m 164.88574,-233.79004 c 0,0 -1.63769,-5.69922 -1.63769,-5.69922" style="fill:none;stroke:#2896ff;stroke-width:1.0211;stroke-linecap:butt;stroke-linejoin:miter;stroke-miterlimit:4;stroke-dasharray:none;stroke-opacity:1" transform="matrix(1.3333333,0,0,1.3333333,-866.3776,1317.2409)"/>
      <path id="path360" d="m 181.21973,-246.71191 c 0,0 -5.18946,-2.8711 -5.18946,-2.8711" style="fill:none;stroke:#2896ff;stroke-width:1.0211;stroke-linecap:butt;stroke-linejoin:miter;stroke-miterlimit:4;stroke-dasharray:none;stroke-opacity:1" transform="matrix(1.3333333,0,0,1.3333333,-866.3776,1317.2409)"/>
      <path id="path361" d="m 183.63477,-267.39941 c 0,0 -5.69922,1.63867 -5.69922,1.63867" style="fill:none;stroke:#2896ff;stroke-width:1.0211;stroke-linecap:butt;stroke-linejoin:miter;stroke-miterlimit:4;stroke-dasharray:none;stroke-opacity:1" transform="matrix(1.3333333,0,0,1.3333333,-866.3776,1317.2409)"/>
      </g>
  </g>
</g></svg>